<svg width="23" height="23" viewBox="0 0 23 23" fill="none" xmlns="http://www.w3.org/2000/svg">
<path d="M18.9586 9.11379L23 6.73318L11.5002 0L0 6.73318L4.04142 9.11379L0 11.4797L4.04142 13.8603L0 16.2263L11.5002 23L23 16.2263L18.9586 13.8603L23 11.4797L18.9586 9.11379ZM11.5002 0.992458L21.3087 6.73534L11.5002 12.5132L1.69132 6.73534L11.5002 0.992458ZM4.88645 9.61131L11.5002 13.5069L18.114 9.61131L21.3087 11.4819L11.5002 17.2597L1.69132 11.4819L4.88645 9.61131ZM21.3087 16.2284L11.5002 22.0062L1.69132 16.2284L4.88645 14.3578L11.5002 18.2535L18.114 14.3578L21.3087 16.2284Z" fill="#576582"/>
</svg>
