<svg width="23" height="23" viewBox="0 0 23 23" fill="none" xmlns="http://www.w3.org/2000/svg">
<path d="M22.5733 14.601C22.5737 14.5991 22.5729 14.5967 22.5737 14.5947C22.8493 13.6093 23 12.5723 23 11.5C23 10.4277 22.8493 9.39074 22.5737 8.40531C22.5733 8.40333 22.5741 8.40095 22.5733 8.39897C22.5725 8.39579 22.5701 8.39381 22.5693 8.39103C22.4658 8.02343 22.3449 7.66376 22.2069 7.31202V7.18155C22.2069 7.0384 22.1272 6.91903 22.0138 6.84924C21.8742 6.53517 21.7223 6.22864 21.5562 5.93003C21.6256 5.98912 21.712 6.02838 21.8103 6.02838C22.0292 6.02838 22.2069 5.85112 22.2069 5.63183V5.2444C22.2069 5.0251 22.0292 4.84785 21.8103 4.84785C21.5914 4.84785 21.4138 5.0251 21.4138 5.2444V5.63183C21.4138 5.65562 21.4233 5.67584 21.4273 5.69845C21.3991 5.65047 21.3698 5.60367 21.3408 5.55609C21.3357 5.54736 21.3305 5.53864 21.325 5.53031C21.2976 5.4855 21.2714 5.4399 21.2433 5.39548C21.2393 5.38914 21.2326 5.38597 21.2286 5.38002C20.9704 4.97078 20.6889 4.57779 20.3828 4.20543C20.38 4.20147 20.3792 4.1971 20.3764 4.19314C20.2975 4.09757 20.2174 4.00319 20.1357 3.9104C20.1298 3.90366 20.1214 3.90088 20.1151 3.89453C19.7986 3.53645 19.4604 3.19859 19.1019 2.88214C19.0959 2.87619 19.0936 2.86826 19.0868 2.86271C18.994 2.78141 18.9001 2.70131 18.8049 2.62319C18.8021 2.62081 18.7985 2.62041 18.7954 2.61803C18.4222 2.3111 18.0284 2.02916 17.6184 1.7706C17.6124 1.76624 17.6093 1.7599 17.6025 1.75553C17.5589 1.72817 17.5141 1.702 17.4701 1.67543C17.4618 1.67028 17.4534 1.66512 17.4447 1.65997C17.3963 1.63062 17.3479 1.60048 17.2992 1.57193C17.3242 1.57629 17.3472 1.58621 17.3737 1.58621H17.7612C17.9801 1.58621 18.1577 1.40895 18.1577 1.18966C18.1577 0.970362 17.9801 0.793103 17.7612 0.793103H17.3737C17.1548 0.793103 16.9772 0.970362 16.9772 1.18966C16.9772 1.28998 17.0176 1.37881 17.0787 1.4486C16.7777 1.28086 16.468 1.127 16.1512 0.986224C16.0814 0.87281 15.9616 0.793103 15.8188 0.793103H15.6884C15.3362 0.654707 14.9762 0.533759 14.6082 0.430259C14.6058 0.429862 14.6042 0.427879 14.6014 0.427086C14.5998 0.42669 14.5979 0.427086 14.5963 0.427086C13.6104 0.15069 12.5727 0 11.5 0C10.4273 0 9.38955 0.15069 8.40372 0.427086C8.40174 0.427483 8.40016 0.427086 8.39857 0.427086C8.39619 0.427483 8.3946 0.429466 8.39183 0.430259C8.02383 0.533759 7.66376 0.654707 7.31162 0.793103H7.18115C7.038 0.793103 6.91864 0.87281 6.84885 0.986224C6.53478 1.12581 6.22824 1.27769 5.92964 1.44384C5.98872 1.37445 6.02798 1.288 6.02798 1.18966C6.02798 0.970362 5.85033 0.793103 5.63143 0.793103H5.244C5.0251 0.793103 4.84745 0.970362 4.84745 1.18966C4.84745 1.40895 5.0251 1.58621 5.244 1.58621H5.63143C5.65522 1.58621 5.67584 1.57669 5.69845 1.57272C5.65166 1.60009 5.60566 1.62903 5.55926 1.65679C5.54816 1.66353 5.53745 1.66988 5.52634 1.67662C5.48233 1.70359 5.43791 1.72936 5.39429 1.75633C5.38795 1.76029 5.38478 1.76664 5.37883 1.771C4.96959 2.02995 4.57621 2.3115 4.20345 2.61803C4.20028 2.62041 4.19631 2.62121 4.19314 2.62359C4.09757 2.7021 4.00319 2.78221 3.9104 2.86429C3.90366 2.87024 3.90128 2.87778 3.89572 2.88372C3.53724 3.20057 3.19859 3.53883 2.88214 3.89731C2.87619 3.90366 2.86826 3.90603 2.86231 3.91238C2.78062 4.00517 2.70052 4.09955 2.6216 4.19512C2.61883 4.19869 2.61843 4.20305 2.61566 4.20662C2.30952 4.57859 2.02836 4.97197 1.77021 5.38081C1.76584 5.38716 1.75871 5.39072 1.75474 5.39747C1.72619 5.44307 1.69922 5.48947 1.67147 5.53547C1.66829 5.53983 1.66552 5.54459 1.66274 5.54935C1.63221 5.59971 1.60128 5.64967 1.57153 5.70043C1.57629 5.67584 1.58621 5.65284 1.58621 5.62628V5.23884C1.58621 5.01955 1.40855 4.84229 1.18966 4.84229C0.970759 4.84229 0.793103 5.01955 0.793103 5.23884V5.62628C0.793103 5.84557 0.970759 6.02283 1.18966 6.02283C1.28998 6.02283 1.37881 5.98238 1.4486 5.92131C1.28086 6.22229 1.127 6.532 0.986224 6.84885C0.87281 6.91864 0.793103 7.0384 0.793103 7.18115V7.31162C0.655103 7.66336 0.533759 8.02343 0.430655 8.39064C0.429862 8.39381 0.427483 8.39579 0.42669 8.39857C0.426293 8.40055 0.427086 8.40293 0.426293 8.40491C0.15069 9.39074 0 10.4277 0 11.5C0 12.5723 0.15069 13.6093 0.426293 14.5947C0.42669 14.5967 0.425897 14.5991 0.42669 14.601C0.427483 14.6046 0.429862 14.6074 0.431052 14.6109C0.534155 14.9778 0.655103 15.337 0.793103 15.6884V15.8188C0.793103 15.962 0.87281 16.0814 0.986224 16.1512C1.12581 16.4652 1.27769 16.7718 1.44384 17.0704C1.37445 17.0113 1.2876 16.972 1.18966 16.972C0.970759 16.972 0.793103 17.1493 0.793103 17.3686V17.756C0.793103 17.9753 0.970759 18.1526 1.18966 18.1526C1.40855 18.1526 1.58621 17.9753 1.58621 17.756V17.3686C1.58621 17.3452 1.57669 17.3249 1.57272 17.3023C1.60207 17.3523 1.6326 17.4015 1.66274 17.4507C1.66552 17.4554 1.66829 17.4602 1.67147 17.4649C1.70002 17.5117 1.72738 17.5589 1.75633 17.6049C1.76267 17.6152 1.77179 17.6228 1.77893 17.6323C2.0351 18.0372 2.31388 18.4266 2.61724 18.7954C2.62002 18.7993 2.62081 18.8037 2.62359 18.8077C2.7025 18.9032 2.7826 18.9976 2.86429 19.0904C2.86984 19.0967 2.87778 19.0987 2.88372 19.1047C3.20057 19.4636 3.53922 19.8018 3.8981 20.1187C3.90405 20.1246 3.90643 20.1325 3.91317 20.1381C4.00597 20.2194 4.09995 20.2995 4.19512 20.3776C4.19829 20.3804 4.20266 20.3812 4.20583 20.3836C4.57859 20.6901 4.97197 20.9716 5.3816 21.2302C5.38755 21.2346 5.39072 21.2409 5.39747 21.2453C5.44109 21.2726 5.4859 21.2988 5.52991 21.3254C5.53824 21.3305 5.54657 21.3357 5.55529 21.3408C5.60367 21.3702 5.65166 21.4003 5.70083 21.4289C5.67585 21.4237 5.65284 21.4138 5.62628 21.4138H5.23884C5.01995 21.4138 4.84229 21.5911 4.84229 21.8103C4.84229 22.0296 5.01995 22.2069 5.23884 22.2069H5.62628C5.84517 22.2069 6.02283 22.0296 6.02283 21.8103C6.02283 21.7104 5.98238 21.6212 5.92131 21.5514C6.22229 21.7191 6.532 21.873 6.84885 22.0138C6.91864 22.1272 7.0384 22.2069 7.18115 22.2069H7.31162C7.66376 22.3453 8.02383 22.4662 8.39183 22.5697C8.39421 22.5701 8.39579 22.5721 8.39857 22.5729C8.40135 22.5737 8.40372 22.5733 8.4065 22.5737C9.39153 22.8493 10.4281 23 11.5 23C12.5719 23 13.6085 22.8493 14.5935 22.5737C14.5963 22.5733 14.5987 22.5733 14.6014 22.5729C14.6038 22.5725 14.6054 22.5705 14.6082 22.5697C14.9762 22.4662 15.3362 22.3453 15.6884 22.2069H15.8188C15.962 22.2069 16.0814 22.1272 16.1512 22.0138C16.4652 21.8742 16.7722 21.7223 17.0704 21.5562C17.0113 21.6256 16.972 21.712 16.972 21.8103C16.972 22.0296 17.1497 22.2069 17.3686 22.2069H17.756C17.9749 22.2069 18.1526 22.0296 18.1526 21.8103C18.1526 21.5911 17.9749 21.4138 17.756 21.4138H17.3686C17.3448 21.4138 17.3242 21.4233 17.3016 21.4273C17.3483 21.3999 17.3943 21.371 17.4407 21.3432C17.4518 21.3365 17.4626 21.3301 17.4737 21.3234C17.5177 21.2964 17.5621 21.2706 17.6057 21.2437C17.6121 21.2397 17.6152 21.2334 17.6212 21.229C18.03 20.9708 18.4234 20.6897 18.7954 20.3836C18.7989 20.3808 18.8037 20.3796 18.8073 20.3768C18.9028 20.2983 18.9972 20.2182 19.09 20.1361C19.0963 20.1306 19.0987 20.1226 19.1047 20.1167C19.4636 19.7994 19.8022 19.4604 20.1194 19.1015C20.125 19.0959 20.1325 19.094 20.1377 19.088C20.2194 18.9952 20.2995 18.9008 20.3784 18.8053C20.3812 18.8017 20.3816 18.7973 20.3843 18.7938C20.6877 18.425 20.9665 18.0356 21.2227 17.6307C21.2298 17.6212 21.2389 17.6136 21.2453 17.6033C21.2738 17.5577 21.3008 17.5113 21.3285 17.4653C21.3313 17.4606 21.3345 17.4558 21.3373 17.4511C21.3678 17.4007 21.3987 17.3507 21.4285 17.3C21.4237 17.3246 21.4138 17.3472 21.4138 17.3737V17.7612C21.4138 17.9804 21.5914 18.1577 21.8103 18.1577C22.0292 18.1577 22.2069 17.9804 22.2069 17.7612V17.3737C22.2069 17.1544 22.0292 16.9772 21.8103 16.9772C21.71 16.9772 21.6212 17.0176 21.5514 17.0787C21.7191 16.7777 21.873 16.468 22.0138 16.1512C22.1272 16.0814 22.2069 15.9616 22.2069 15.8188V15.6884C22.3449 15.3374 22.4654 14.9782 22.5689 14.6109C22.5697 14.6074 22.5725 14.605 22.5733 14.601ZM20.6492 17.0561C19.7578 18.5186 18.5261 19.7511 17.0648 20.6437C17.0525 20.6512 17.0398 20.6588 17.0275 20.6663C16.3296 21.0886 15.5789 21.4324 14.789 21.6878L13.683 17.2639C15.3299 16.6377 16.6381 15.3295 17.2643 13.6826L21.6882 14.7886C21.4312 15.5821 21.0862 16.3363 20.6607 17.0374C20.6568 17.0434 20.6532 17.0497 20.6492 17.0561ZM5.9689 20.6639C5.95898 20.658 5.94907 20.652 5.93916 20.6461C4.47707 19.7538 3.24419 18.5206 2.35234 17.0581C2.34759 17.0505 2.34283 17.0426 2.33847 17.0351C1.91376 16.3348 1.56876 15.5813 1.31219 14.7886L5.73612 13.6826C6.36188 15.3295 7.6705 16.6377 9.31738 17.2639L8.2114 21.6878C7.41988 21.4316 6.66802 21.0874 5.9689 20.6639ZM2.35076 5.94391C3.24221 4.48143 4.4739 3.24895 5.93519 2.35631C5.94748 2.34878 5.96017 2.34124 5.97247 2.33371C6.6704 1.91138 7.42107 1.56757 8.211 1.31219L9.31698 5.73612C7.6701 6.36228 6.36188 7.6705 5.73572 9.31738L1.31179 8.2114C1.56876 7.4179 1.91376 6.66366 2.33926 5.96255C2.34322 5.9566 2.34679 5.95026 2.35076 5.94391ZM5.50216 10.076C5.3935 10.534 5.32966 11.0091 5.32966 11.5C5.32966 11.9909 5.3935 12.466 5.50216 12.924L1.09686 14.0252C0.899776 13.2151 0.793103 12.37 0.793103 11.5C0.793103 10.63 0.899776 9.78491 1.09686 8.97476L5.50216 10.076ZM6.12276 11.5C6.12276 8.53498 8.53498 6.12276 11.5 6.12276C14.465 6.12276 16.8772 8.53498 16.8772 11.5C16.8772 14.465 14.465 16.8772 11.5 16.8772C8.53498 16.8772 6.12276 14.465 6.12276 11.5ZM17.0311 2.33609C17.041 2.34203 17.0509 2.34798 17.0608 2.35393C18.5213 3.24538 19.7526 4.47628 20.6441 5.93638C20.6512 5.94828 20.6584 5.95978 20.6651 5.97128C21.0878 6.6696 21.4316 7.42067 21.6874 8.211L17.2635 9.31698C16.6377 7.6701 15.3291 6.36188 13.6822 5.73572L14.7882 1.31179C15.5801 1.56836 16.332 1.91257 17.0311 2.33609ZM22.2069 11.5C22.2069 12.37 22.1002 13.2151 21.9031 14.0252L17.4978 12.924C17.6065 12.466 17.6703 11.9909 17.6703 11.5C17.6703 11.0091 17.6065 10.534 17.4978 10.076L21.9031 8.97476C22.1002 9.78491 22.2069 10.63 22.2069 11.5ZM14.0252 1.09686L12.924 5.50255C12.466 5.3935 11.9909 5.32966 11.5 5.32966C11.0091 5.32966 10.534 5.3935 10.076 5.50216L8.97476 1.09647C9.78491 0.900172 10.63 0.793103 11.5 0.793103C12.37 0.793103 13.2151 0.900172 14.0252 1.09686ZM8.97476 21.9031L10.076 17.4974C10.534 17.6061 11.0091 17.6699 11.5 17.6699C11.9909 17.6699 12.466 17.6061 12.924 17.4974L14.0252 21.9031C13.2151 22.0998 12.37 22.2069 11.5 22.2069C10.63 22.2069 9.78491 22.0998 8.97476 21.9031Z" fill="#576582"/>
</svg>
