<svg width="23" height="23" viewBox="0 0 23 23" fill="none" xmlns="http://www.w3.org/2000/svg">
<path d="M22.8022 10.4949L19.3812 7.31831V2.1142H15.4405V3.65935L11.4998 0L0.197807 10.4949C0.0386018 10.6431 0.0291441 10.8925 0.177315 11.0521C0.325092 11.2113 0.574539 11.2204 0.734533 11.0726L2.04246 9.8581V23H8.34761H14.6528H20.9579V9.85771L22.2658 11.0722C22.3415 11.1428 22.438 11.1775 22.5342 11.1775C22.6402 11.1775 22.7454 11.1353 22.8227 11.0517C22.9708 10.8925 22.9614 10.6431 22.8022 10.4949ZM16.2286 2.90234H18.5931V6.58652L16.2286 4.39114V2.90234ZM9.13535 22.2119V13.9115C9.13535 13.7078 9.30087 13.5423 9.5046 13.5423H13.495C13.6987 13.5423 13.8642 13.7078 13.8642 13.9115V22.2119H9.13535ZM20.1694 22.2119H14.6524V13.9115C14.6524 13.2731 14.1334 12.7541 13.495 12.7541H9.5046C8.8662 12.7541 8.34721 13.2731 8.34721 13.9115V22.2119H2.83021V9.12591L11.4998 1.07542L17.1271 6.30081L19.3812 8.39373L20.1694 9.12552V22.2119Z" fill="white"/>
</svg>
