<svg width="23" height="22" viewBox="0 0 23 22" fill="none" xmlns="http://www.w3.org/2000/svg">
<path d="M19.97 7.99858H9.27856C9.0925 7.99858 8.94165 8.14943 8.94165 8.33549C8.94165 8.52156 9.0925 8.67241 9.27856 8.67241H19.97C20.156 8.67241 20.3069 8.52156 20.3069 8.33549C20.3069 8.14943 20.156 7.99858 19.97 7.99858Z" fill="#576582"/>
<path d="M19.97 10.5741H9.27856C9.0925 10.5741 8.94165 10.7249 8.94165 10.911C8.94165 11.0971 9.0925 11.2479 9.27856 11.2479H19.97C20.156 11.2479 20.3069 11.0971 20.3069 10.911C20.3069 10.7249 20.156 10.5741 19.97 10.5741Z" fill="#576582"/>
<path d="M19.97 13.1496H9.27856C9.0925 13.1496 8.94165 13.3004 8.94165 13.4865C8.94165 13.6726 9.0925 13.8234 9.27856 13.8234H19.97C20.156 13.8234 20.3069 13.6726 20.3069 13.4865C20.3069 13.3004 20.156 13.1496 19.97 13.1496Z" fill="#576582"/>
<path d="M21.0406 5.05207H8.20885C7.12834 5.05207 6.24927 5.9311 6.24927 7.01165V15.0804C6.24927 16.1609 7.1283 17.04 8.20885 17.04H17.2027C17.2989 17.04 17.3882 17.0832 17.4479 17.1587L20.3523 20.8357C20.4668 20.9806 20.6338 21.0596 20.8087 21.0596C20.8737 21.0596 20.9398 21.0487 21.0047 21.0262C21.244 20.943 21.3986 20.7257 21.3986 20.4724V17.0065C22.3071 16.8368 23.0002 16.0335 23.0002 15.0804V7.01161C23.0002 5.9311 22.1212 5.05207 21.0406 5.05207ZM22.3264 15.0804C22.3264 15.7801 21.7571 16.3567 21.0573 16.3656C20.873 16.368 20.7247 16.5181 20.7247 16.7025V20.2201L17.9767 16.7411C17.7885 16.5027 17.5064 16.3661 17.2027 16.3661H8.20885C7.49989 16.3661 6.9231 15.7893 6.9231 15.0803V7.01161C6.9231 6.30265 7.49985 5.72585 8.20885 5.72585H21.0406C21.7496 5.72585 22.3264 6.30265 22.3264 7.01161V15.0804Z" fill="#576582"/>
<path d="M4.9636 10.6229C4.73315 10.6556 4.52678 10.7743 4.38249 10.9569L2.06807 13.887V10.9504C2.06807 10.766 1.91983 10.6159 1.73547 10.6135C1.15009 10.606 0.673828 10.1237 0.673828 9.53828V2.51425C0.673828 1.92115 1.15638 1.4386 1.74948 1.4386H12.9199C13.513 1.4386 13.9955 1.92115 13.9955 2.51425V3.81393C13.9955 4 14.1464 4.15085 14.3325 4.15085C14.5185 4.15085 14.6694 4 14.6694 3.81393V2.51425C14.6694 1.5496 13.8845 0.764771 12.9199 0.764771H1.74948C0.78483 0.764771 0 1.5496 0 2.51425V9.53828C0 10.3768 0.60065 11.0853 1.39429 11.2509V14.2322C1.39429 14.4715 1.54037 14.6769 1.76651 14.7555C1.82783 14.7768 1.89027 14.7871 1.95172 14.7871C2.1169 14.7871 2.2748 14.7124 2.38293 14.5756L4.91131 11.3746C4.94779 11.3284 5.00003 11.2984 5.05834 11.2901C5.24256 11.2639 5.37073 11.0933 5.34454 10.9091C5.31839 10.7249 5.14809 10.5966 4.9636 10.6229Z" fill="#576582"/>
</svg>
