<svg width="22" height="27" viewBox="0 0 22 27" fill="none" xmlns="http://www.w3.org/2000/svg">
<path d="M20.9233 21.4868C20.8439 21.4353 20.2466 21.0168 19.6485 19.7509C18.55 17.4263 18.3195 14.1516 18.3195 11.8138C18.3195 11.8036 18.3193 11.7936 18.3189 11.7834C18.3069 8.69379 16.4569 6.03039 13.8094 4.83537V3.00776C13.8094 1.34926 12.4623 0 10.8066 0H10.5577C8.90198 0 7.55493 1.34926 7.55493 3.00776V4.83527C4.89859 6.03413 3.04482 8.71114 3.04482 11.8138C3.04482 14.1516 2.81427 17.4262 1.71586 19.7509C1.1178 21.0168 0.520481 21.4352 0.441063 21.4868C0.106621 21.6416 -0.0582793 21.9991 0.0186602 22.3614C0.0963379 22.7274 0.438373 22.9796 0.811891 22.9796H6.60988C6.64226 25.2019 8.456 27 10.6822 27C12.9084 27 14.7221 25.2019 14.7545 22.9796H20.5525C20.9259 22.9796 21.268 22.7274 21.3457 22.3614C21.4225 21.9991 21.2577 21.6415 20.9233 21.4868ZM9.13701 3.00776C9.13701 2.22302 9.77436 1.58462 10.5578 1.58462H10.8066C11.5901 1.58462 12.2274 2.22302 12.2274 3.00776V4.32174C11.7281 4.21854 11.2113 4.16422 10.682 4.16422C10.1528 4.16422 9.63614 4.21849 9.13707 4.32158V3.00776H9.13701ZM10.6822 25.4154C9.32833 25.4154 8.22402 24.3282 8.19191 22.9797H13.1724C13.1403 24.3281 12.036 25.4154 10.6822 25.4154ZM13.8673 21.395C13.8672 21.395 2.61462 21.395 2.61462 21.395C2.75146 21.1817 2.89073 20.9402 3.02916 20.6673C4.08933 18.5768 4.62691 15.598 4.62691 11.8138C4.62691 8.46956 7.3432 5.74884 10.6819 5.74884C14.0206 5.74884 16.7369 8.46956 16.7369 11.8165C16.7369 11.8262 16.7371 11.8359 16.7375 11.8456C16.7405 15.6146 17.278 18.5827 18.3352 20.6673C18.4736 20.9403 18.613 21.1817 18.7498 21.395H13.8673Z" fill="#2B2B2B"/>
</svg>
