<svg width="9" height="14" viewBox="0 0 9 14" fill="none" xmlns="http://www.w3.org/2000/svg">
<path d="M5.43388 6.69264L0.222301 11.7024C0.0788002 11.84 -0.000142097 12.024 -0.000142097 12.2201C-0.000142097 12.4164 0.0788002 12.6003 0.222301 12.7381L0.678968 13.1769C0.822243 13.3149 1.01377 13.3909 1.21786 13.3909C1.42196 13.3909 1.61326 13.3149 1.75664 13.1769L7.96186 7.21238C8.10582 7.07411 8.18465 6.88936 8.18408 6.69296C8.18465 6.49569 8.10593 6.31116 7.96186 6.17278L1.76242 0.21404C1.61903 0.0759935 1.42774 2.86102e-06 1.22353 2.86102e-06C1.01943 2.86102e-06 0.828133 0.0759935 0.684632 0.21404L0.228078 0.652783C-0.069005 0.938348 -0.069005 1.40322 0.228078 1.68867L5.43388 6.69264Z" fill="#0E1F4E"/>
</svg>
