<svg width="23" height="23" viewBox="0 0 23 23" fill="none" xmlns="http://www.w3.org/2000/svg">
<path d="M17.0117 1.60345C16.8273 0.699708 16.0266 0.0172424 15.069 0.0172424C14.8501 0.0172424 14.6724 0.194501 14.6724 0.413794C14.6724 0.633087 14.8501 0.810346 15.069 0.810346C15.7249 0.810346 16.2586 1.3441 16.2586 2C16.2586 2.6559 15.7249 3.18966 15.069 3.18966C14.8501 3.18966 14.6724 3.36691 14.6724 3.58621C14.6724 3.8055 14.8501 3.98276 15.069 3.98276C16.0262 3.98276 16.8273 3.30029 17.0117 2.39655H22.2069V5.96552H0.793103V2.39655H6.34483H7.53448C7.75338 2.39655 7.93103 2.21929 7.93103 2C7.93103 1.78071 7.75338 1.60345 7.53448 1.60345H6.81434C6.97852 1.14266 7.41472 0.810346 7.93103 0.810346C8.58693 0.810346 9.12069 1.3441 9.12069 2C9.12069 2.6559 8.58693 3.18966 7.93103 3.18966C7.71214 3.18966 7.53448 3.36691 7.53448 3.58621C7.53448 3.8055 7.71214 3.98276 7.93103 3.98276C9.02433 3.98276 9.91379 3.09329 9.91379 2C9.91379 0.906708 9.02433 0.0172424 7.93103 0.0172424C6.97376 0.0172424 6.17272 0.699708 5.98833 1.60345H0V6.75862V22.6207H23V6.75862V1.60345H17.0117ZM22.2069 21.8276H0.793103V6.75862H22.2069V21.8276Z" fill="#576582"/>
<path d="M10.3104 0.810346C10.9663 0.810346 11.5 1.3441 11.5 2C11.5 2.6559 10.9663 3.18966 10.3104 3.18966C10.0915 3.18966 9.91382 3.36691 9.91382 3.58621C9.91382 3.8055 10.0915 3.98276 10.3104 3.98276C11.4037 3.98276 12.2931 3.09329 12.2931 2C12.2931 0.906708 11.4037 0.0172424 10.3104 0.0172424C10.0915 0.0172424 9.91382 0.194501 9.91382 0.413794C9.91382 0.633087 10.0915 0.810346 10.3104 0.810346Z" fill="#576582"/>
<path d="M12.6895 0.810346C13.3454 0.810346 13.8792 1.3441 13.8792 2C13.8792 2.6559 13.3454 3.18966 12.6895 3.18966C12.4706 3.18966 12.293 3.36691 12.293 3.58621C12.293 3.8055 12.4706 3.98276 12.6895 3.98276C13.7828 3.98276 14.6723 3.09329 14.6723 2C14.6723 0.906708 13.7828 0.0172424 12.6895 0.0172424C12.4706 0.0172424 12.293 0.194501 12.293 0.413794C12.293 0.633087 12.4706 0.810346 12.6895 0.810346Z" fill="#576582"/>
<path d="M3.56892 9.93104H12.2931C12.5119 9.93104 12.6896 9.75378 12.6896 9.53449C12.6896 9.3152 12.5119 9.13794 12.2931 9.13794H3.56892C3.35002 9.13794 3.17236 9.3152 3.17236 9.53449C3.17236 9.75378 3.35002 9.93104 3.56892 9.93104Z" fill="#576582"/>
<path d="M19.431 15.4828H13.4827C13.2638 15.4828 13.0862 15.66 13.0862 15.8793C13.0862 16.0986 13.2638 16.2759 13.4827 16.2759H19.431C19.6499 16.2759 19.8276 16.0986 19.8276 15.8793C19.8276 15.66 19.6499 15.4828 19.431 15.4828Z" fill="#576582"/>
<path d="M3.56892 13.1035H7.53443C7.75333 13.1035 7.93098 12.9262 7.93098 12.7069C7.93098 12.4876 7.75333 12.3103 7.53443 12.3103H3.56892C3.35002 12.3103 3.17236 12.4876 3.17236 12.7069C3.17236 12.9262 3.35002 13.1035 3.56892 13.1035Z" fill="#576582"/>
<path d="M19.4309 18.6552H15.4654C15.2465 18.6552 15.0688 18.8324 15.0688 19.0517C15.0688 19.271 15.2465 19.4483 15.4654 19.4483H19.4309C19.6498 19.4483 19.8275 19.271 19.8275 19.0517C19.8275 18.8324 19.6498 18.6552 19.4309 18.6552Z" fill="#576582"/>
<path d="M11.1035 12.7069C11.1035 12.9262 11.2812 13.1035 11.5001 13.1035H17.4483C17.6672 13.1035 17.8449 12.9262 17.8449 12.7069C17.8449 12.4876 17.6672 12.3103 17.4483 12.3103H11.5001C11.2812 12.3103 11.1035 12.4876 11.1035 12.7069Z" fill="#576582"/>
<path d="M9.79895 12.9885C9.87033 12.9131 9.91395 12.81 9.91395 12.7069C9.91395 12.6034 9.87033 12.5003 9.79895 12.4254C9.65223 12.2786 9.38257 12.2786 9.23585 12.4254C9.16447 12.5003 9.12085 12.6034 9.12085 12.7069C9.12085 12.81 9.16447 12.9131 9.23585 12.9885C9.31119 13.0634 9.4143 13.1035 9.5174 13.1035C9.6205 13.1035 9.72361 13.0634 9.79895 12.9885Z" fill="#576582"/>
<path d="M5.15503 15.8793C5.15503 16.0986 5.33268 16.2759 5.55158 16.2759H11.4999C11.7188 16.2759 11.8964 16.0986 11.8964 15.8793C11.8964 15.66 11.7188 15.4828 11.4999 15.4828H5.55158C5.33268 15.4828 5.15503 15.66 5.15503 15.8793Z" fill="#576582"/>
<path d="M3.56891 16.2759C3.67202 16.2759 3.77512 16.2322 3.85047 16.1609C3.92185 16.0855 3.96547 15.9824 3.96547 15.8793C3.96547 15.7758 3.92185 15.6727 3.85047 15.6017C3.70374 15.451 3.43409 15.451 3.28736 15.5978C3.21598 15.6727 3.17236 15.7758 3.17236 15.8793C3.17236 15.9824 3.21598 16.0855 3.28736 16.1609C3.36271 16.2322 3.46185 16.2759 3.56891 16.2759Z" fill="#576582"/>
<path d="M19.4312 13.1035C19.5343 13.1035 19.6374 13.0634 19.7128 12.9885C19.7881 12.9131 19.8278 12.81 19.8278 12.7069C19.8278 12.6034 19.7881 12.5003 19.7128 12.4254C19.5621 12.2786 19.2964 12.2786 19.1497 12.4254C19.0783 12.5003 19.0347 12.6034 19.0347 12.7069C19.0347 12.81 19.0783 12.9131 19.1497 12.9885C19.225 13.0634 19.3281 13.1035 19.4312 13.1035Z" fill="#576582"/>
<path d="M13.4827 18.6552H3.56891C3.35002 18.6552 3.17236 18.8324 3.17236 19.0517C3.17236 19.271 3.35002 19.4483 3.56891 19.4483H13.4827C13.7016 19.4483 13.8793 19.271 13.8793 19.0517C13.8793 18.8324 13.7016 18.6552 13.4827 18.6552Z" fill="#576582"/>
</svg>
