<svg width="35" height="35" viewBox="0 0 35 35" fill="none" xmlns="http://www.w3.org/2000/svg">
<path d="M0.833843 33.8813L10.6527 23.6699C8.14825 21.1582 6.59669 17.6956 6.59669 13.8768C6.59669 6.22475 12.8214 0 20.4735 0C28.1256 0 34.3503 6.22475 34.3503 13.8768C34.3503 21.5289 28.1256 27.7537 20.4735 27.7537C17.1147 27.7537 14.032 26.553 11.6294 24.5607L1.78672 34.7971C1.6572 34.9326 1.48407 35 1.31028 35C1.14508 35 0.980541 34.9385 0.852345 34.8156C0.589344 34.5625 0.581417 34.1443 0.833843 33.8813ZM20.4735 26.4321C27.3967 26.4321 33.0287 20.8 33.0287 13.8768C33.0287 6.95361 27.3967 1.3216 20.4735 1.3216C13.5503 1.3216 7.91829 6.95361 7.91829 13.8768C7.91829 20.8 13.551 26.4321 20.4735 26.4321Z" fill="#2B2B2B"/>
</svg>
